<?xml version="1.0" encoding="UTF-8"?>
<svg id="Layer_1" data-name="Layer 1" xmlns="http://www.w3.org/2000/svg" viewBox="0 0 512 246">
  <defs>
    <style>
      .cls-1 {
        fill: #ef5a37;
      }
    </style>
  </defs>
  <g>
    <path d="M257.07,140.67h-.1v.6h1.25v2.92h1.03v-2.92h1.22v-.6h-3.4Z"/>
    <path d="M264.41,140.72v-.05h-2.96s-.1,0-.1,0v3.53h3.11v-.6h-2.05v-.96h1.91v-.6h-1.91v-.76h2v-.56Z"/>
    <path d="M268.44,143.64v-.05h-1.93s-.03,0-.03,0c0,0-.02-.01-.04-.02-.03-.03-.04-.08-.04-.15v-1.95c0-.08.02-.13.04-.16.01-.01.03-.02.04-.03,0,0,.02,0,.03,0h1.93v-.6h-1.93c-.39,0-.69.07-.89.21-.2.14-.29.33-.29.59v1.95c0,.25.09.45.29.58.2.14.5.2.89.2h1.93v-.56Z"/>
    <path d="M270.27,144.2h.1v-1.56h1.48v1.56h1.07v-3.53h-1.07v1.36h-1.48v-1.36h-1.05v3.53h.95Z"/>
    <path d="M276.69,140.67h-.1v2.18l-1.88-2.15-.03-.03h-.89v3.53h.99v-2.15l1.87,2.13.03.03h.9v-3.53h-.89Z"/>
    <path d="M282.25,141.46c0-.25-.09-.45-.28-.59-.2-.14-.49-.21-.87-.21h-1.5c-.38,0-.67.07-.87.21-.19.14-.28.33-.28.59v1.95c0,.25.09.45.28.58.2.14.49.21.87.21h1.5c.38,0,.67-.07.87-.2.19-.13.28-.33.28-.58v-1.96ZM279.49,141.46c0-.08.02-.13.04-.16.01-.01.03-.02.03-.03,0,0,.02,0,.03,0h1.5s.02,0,.03,0c0,0,.02.01.03.03.03.03.04.08.04.16v1.96c0,.07-.02.12-.04.15-.01.01-.03.02-.03.02,0,0-.02,0-.03,0h-1.5s-.02,0-.03,0c0,0-.02-.01-.03-.02-.03-.03-.04-.08-.04-.15v-1.95Z"/>
    <path d="M283.22,140.67h-.1v3.53h3.11v-.6h-2.04v-2.92h-.97Z"/>
    <path d="M290.9,141.46c0-.25-.09-.45-.28-.59-.2-.14-.49-.21-.87-.21h-1.5c-.38,0-.67.07-.87.21-.19.14-.28.33-.28.59v1.95c0,.25.09.45.28.58.2.14.49.21.87.21h1.5c.38,0,.67-.07.87-.2.19-.13.28-.33.28-.58v-1.96ZM288.14,141.46c0-.08.02-.13.04-.16.01-.01.03-.02.03-.03,0,0,.02,0,.03,0h1.5s.02,0,.03,0c0,0,.02.01.03.03.03.03.04.08.04.16v1.96c0,.07-.02.12-.04.15-.01.01-.03.02-.03.02,0,0-.02,0-.03,0h-1.5s-.02,0-.03,0c0,0-.02-.01-.03-.02-.03-.03-.04-.08-.04-.15v-1.95Z"/>
    <path d="M293.48,142.03h-.1v.6h1.21v.78c0,.07-.02.12-.04.15-.01.01-.03.02-.03.02,0,0-.02,0-.04,0h-1.54s-.03,0-.03,0c0,0-.02-.01-.04-.02-.03-.03-.04-.08-.04-.15v-1.95c0-.08.02-.13.05-.16.01-.01.03-.02.04-.03,0,0,.02,0,.03,0h2.45v-.6h-2.45c-.38,0-.69.07-.89.21-.2.14-.29.33-.29.59v1.95c0,.25.09.45.29.58.2.14.5.2.89.2h1.54c.38,0,.69-.07.89-.2.2-.13.29-.33.29-.58v-1.39h-2.17Z"/>
    <path d="M297.53,140.7l-.03-.03h-1.26l.07.07,1.82,1.8v1.66h1.07v-1.66l1.82-1.8.07-.07h-1.27l-.03.03-1.14,1.15-1.14-1.15Z"/>
  </g>
  <g>
    <path class="cls-1" d="M214.95,127.17h8.11c1.34,0,2.43-1.5,2.43-3.35s-1.09-3.35-2.43-3.35h-8.11c-.1,0-.2.04-.26.11-.07.07-.11.17-.11.26v5.94c0,.05,0,.1.02.15.02.05.05.09.08.13.04.04.08.06.12.08.04.02.09.03.14.03h0Z"/>
    <path class="cls-1" d="M214.57,139.12s0,.1.03.14c.02.05.04.09.08.12.04.04.08.06.12.08.05.02.09.03.14.03h9.16c1.22,0,2.21-1.5,2.21-3.35s-.99-3.35-2.21-3.35h-9.15c-.1,0-.2.04-.27.11-.07.07-.11.17-.11.26v5.95Z"/>
    <path class="cls-1" d="M276.23,120.47h-12.33c-1.22,0-2.21,1.5-2.21,3.35s.99,3.35,2.21,3.35h6.72c2.91,0,5.47,1.67,6.93,4.17.66-2.73,1-5.53,1-8.34,0-19.33-15.7-35-35.06-35-16.55,0-30.41,11.44-34.1,26.83h15.08c3.79,0,6.86,3.58,6.86,7.99,0,2.44-.94,4.63-2.42,6.09h0c2.02,1.65,3.33,4.28,3.33,7.24,0,4.96-3.67,8.99-8.2,8.99h-7.68c3.29,4.03,7.43,7.27,12.13,9.49,4.69,2.22,9.83,3.38,15.03,3.38s10.33-1.15,15.03-3.38c4.69-2.22,8.84-5.46,12.13-9.48h0s-14.65,0-14.65,0c-.05,0-.1,0-.15-.03-.04-.02-.09-.04-.12-.08-.04-.04-.06-.08-.08-.12-.02-.05-.03-.09-.03-.14v-4.89c0-.1.04-.19.11-.26.07-.07.17-.11.27-.11h14.69c1.22,0,2.21-1.5,2.21-3.35s-.99-3.36-2.21-3.36h-6.87c-4.52,0-8.2-4.02-8.2-8.99s3.67-8.99,8.2-8.99h12.41s.1,0,.14.03c.05.02.09.05.12.08.04.04.06.08.08.12.02.04.03.09.03.14v4.88c0,.05-.01.1-.03.15-.02.05-.05.09-.08.12-.04.04-.08.07-.12.08-.04.02-.09.03-.14.03ZM254.14,120.08c0,.1-.04.2-.11.27-.07.07-.17.11-.27.11h-10.84c-2.13,0-3.59,1.98-3.59,3.68v11.67c0,1.7,1.45,3.68,3.59,3.68h10.84c.1,0,.2.04.27.11.07.07.11.17.11.27v4.88c0,.1-.04.2-.11.27-.07.08-.17.11-.27.11h-11.42c-5.07,0-9.18-4.21-9.18-9.41v-11.51c0-5.2,4.11-9.41,9.18-9.41h11.42c.1,0,.2.04.27.11.08.07.11.17.11.27v4.88Z"/>
  </g>
  <circle class="cls-1" cx="291.77" cy="126.04" r="10.85"/>
  <circle class="cls-1" cx="284.47" cy="111.38" r="3.81"/>
  <circle class="cls-1" cx="278.8" cy="104.5" r="2.33"/>
  <circle class="cls-1" cx="274.47" cy="99.27" r="2.17"/>
</svg>