<?xml version="1.0" encoding="UTF-8"?>
<svg id="Layer_1" data-name="Layer 1" xmlns="http://www.w3.org/2000/svg" viewBox="0 0 512 246">
  <defs>
    <style>
      .cls-1 {
        fill: #de0c12;
      }

      .cls-2 {
        fill: #dd0d12;
      }
    </style>
  </defs>
  <g>
    <path class="cls-2" d="M258.34,157.49c-3.11-1.69-5.94-3.62-8.66-5.8-.91-.73-1.72-1.43-2.4-2.37,5.29-8.31,10.68-17.4,14-26.57l2.72-7.51c.08-.22.21-.54.47-.56l1.54-.09c4.21.19,8.34.04,12.5-.69,2.54-.44,4.84-1.25,7.3-1.9l3.55-.94c.62-.16.98.08,1.2.66.91,2.45,2.29,4.71,4.23,6.46,1.08.98,2.33,1.56,3.79,1.74,3.79.49,7.61.36,11.38-.33l-.35-6.42-2.24-24.29,13.65-.89.39,4.47.87,18.11.08,8.83c.03,3.66-1.34,12.45-3.6,14.3-2.48,2.02-10.11,2.45-13.8,2.6-2.42.1-4.72.09-7.11-.23-1.4-.19-2.65-.75-3.81-1.54-3.15-1.88-5.03-4.29-6.58-7.6-4.79,1.78-10.11,2.55-15.14,2.7-2.72,8.93-6.2,17.44-10.54,25.61-.52.98-.99,1.87-1.7,2.73-.49.11-1.18-.19-1.72-.49Z"/>
    <path class="cls-2" d="M339.76,135.28c-3.6.94-7.21,1.26-10.88,1.06-.22-.39-.22-.78-.2-1.26.3-5.93.59-11.77.39-17.74l-.78-23.47-.07-4.99,13.56-.88.9,16.35.27,17.84-.14,9.76-.17,2.04c-.85.62-1.78.99-2.89,1.28Z"/>
    <path class="cls-1" d="M284.17,150.98c-.75.78-1.75.41-2.83-.21-2.2-1.28-4.21-2.79-6.1-4.47-.52-.46-.68-.93-.41-1.59,1.12-2.79,2.84-5.28,5.12-7.25,1.78-1.54,6.66,2.53,8.44,4.35.71.73.9,1.64.44,2.63-1.12,2.43-2.78,4.6-4.65,6.53Z"/>
  </g>
  <g>
    <path class="cls-2" d="M207.74,136.34c-2.94-.05-5.47-.89-7.9-2.37-1.95-1.19-3.73-2.47-5.16-4.4-.69,1.57-1.59,2.83-2.7,4.09-.65.74-1.43,1.27-2.38,1.58-5.12,1.66-11.35,1.81-16.69,1.14-1.32-.17-2.53-.43-3.8-.8-.12-.99-.04-1.91.05-2.9.38-4.24,1.24-8.71,2.83-12.63.38-.07.68-.03,1.04.01,5.04.64,10.18.69,15.2-.43-1.93-3.84-4.22-7.37-6.75-10.83-1.06-1.45-2.05-2.78-3.03-4.32l1.65-1.52,9.88-8.49c.94,1.09,1.62,2.18,2.35,3.36,2.06,3.31,3.72,6.73,5.24,10.32l1.87,4.4c.81,1.91,1.71,3.71,2.85,5.44.28.43.64.72,1.07.98,1.14.54,2.29,1.01,3.58,1.14,3.01.31,6,.05,8.88-.65-.61-3.1-1.6-5.91-2.64-8.86,2.3-.99,4.57-1.57,6.93-2.12l6.57-1.54c1.8,5.12,2.04,10.59,1.52,15.91-.29,3.01-1.28,7.23-2.68,9.83-.4.74-.98,1.25-1.79,1.55-4.74,1.75-10.8,2.2-15.97,2.11Z"/>
    <path class="cls-2" d="M234.16,136.35c-.21-.21-.18-.72-.17-.99l.33-9.7v-10.36s-.83-23.46-.83-23.46c0-1.05-.14-1.94.04-2.94l13.47-.88c.47,5.01.73,9.82.91,14.77.32,8.59.46,17.07.27,25.65l-.22,5.53c-.69.59-1.52.9-2.43,1.17-3.67,1.07-7.46,1.43-11.36,1.23Z"/>
    <path class="cls-2" d="M218.78,102c-.31.27-.67.33-1,.23-2.49-.75-5.23-2.89-7.22-4.66-.38-.34-.75-.65-.95-1.18.75-2.35,2-4.42,3.57-6.29.37-.43.77-.77,1.15-1.15.66-.66,1.33-.92,2.26-.6,1.87.65,3.59,1.63,5.03,3.01l2.15,2.06c.37.35.44.8.27,1.27-.91,2.51-3.18,5.52-5.25,7.32Z"/>
  </g>
</svg>